<svg xmlns="http://www.w3.org/2000/svg" viewBox="0 0 47 15" shape-rendering="crispEdges">
  <rect x="0" y="0" width="47" height="1" fill="#80c343"/>
  <rect x="0" y="1" width="47" height="1" fill="#80c343"/>
  <rect x="0" y="2" width="47" height="1" fill="#80c343"/>
  <rect x="0" y="3" width="1" height="1" fill="#5b8e2c"/>
  <rect x="1" y="3" width="45" height="1" fill="#80c343"/>
  <rect x="46" y="3" width="1" height="1" fill="#5b8e2c"/>
  <rect x="0" y="4" width="1" height="1" fill="#5b8e2c"/>
  <rect x="1" y="4" width="2" height="1" fill="#80c343"/>
  <rect x="3" y="4" width="5" height="1" fill="#ffffff"/>
  <rect x="8" y="4" width="1" height="1" fill="#80c343"/>
  <rect x="9" y="4" width="4" height="1" fill="#ffffff"/>
  <rect x="13" y="4" width="2" height="1" fill="#80c343"/>
  <rect x="15" y="4" width="5" height="1" fill="#ffffff"/>
  <rect x="20" y="4" width="1" height="1" fill="#80c343"/>
  <rect x="21" y="4" width="5" height="1" fill="#ffffff"/>
  <rect x="26" y="4" width="1" height="1" fill="#80c343"/>
  <rect x="27" y="4" width="4" height="1" fill="#ffffff"/>
  <rect x="31" y="4" width="2" height="1" fill="#80c343"/>
  <rect x="33" y="4" width="4" height="1" fill="#ffffff"/>
  <rect x="37" y="4" width="2" height="1" fill="#80c343"/>
  <rect x="39" y="4" width="1" height="1" fill="#ffffff"/>
  <rect x="40" y="4" width="3" height="1" fill="#80c343"/>
  <rect x="43" y="4" width="1" height="1" fill="#ffffff"/>
  <rect x="44" y="4" width="2" height="1" fill="#80c343"/>
  <rect x="46" y="4" width="1" height="1" fill="#5b8e2c"/>
  <rect x="0" y="5" width="1" height="1" fill="#5b8e2c"/>
  <rect x="1" y="5" width="2" height="1" fill="#80c343"/>
  <rect x="3" y="5" width="1" height="1" fill="#ffffff"/>
  <rect x="4" y="5" width="5" height="1" fill="#80c343"/>
  <rect x="9" y="5" width="1" height="1" fill="#ffffff"/>
  <rect x="10" y="5" width="3" height="1" fill="#80c343"/>
  <rect x="13" y="5" width="1" height="1" fill="#ffffff"/>
  <rect x="14" y="5" width="1" height="1" fill="#80c343"/>
  <rect x="15" y="5" width="1" height="1" fill="#ffffff"/>
  <rect x="16" y="5" width="5" height="1" fill="#80c343"/>
  <rect x="21" y="5" width="1" height="1" fill="#ffffff"/>
  <rect x="22" y="5" width="5" height="1" fill="#80c343"/>
  <rect x="27" y="5" width="1" height="1" fill="#ffffff"/>
  <rect x="28" y="5" width="3" height="1" fill="#80c343"/>
  <rect x="31" y="5" width="1" height="1" fill="#ffffff"/>
  <rect x="32" y="5" width="1" height="1" fill="#80c343"/>
  <rect x="33" y="5" width="1" height="1" fill="#ffffff"/>
  <rect x="34" y="5" width="3" height="1" fill="#80c343"/>
  <rect x="37" y="5" width="1" height="1" fill="#ffffff"/>
  <rect x="38" y="5" width="1" height="1" fill="#80c343"/>
  <rect x="39" y="5" width="1" height="1" fill="#ffffff"/>
  <rect x="40" y="5" width="3" height="1" fill="#80c343"/>
  <rect x="43" y="5" width="1" height="1" fill="#ffffff"/>
  <rect x="44" y="5" width="2" height="1" fill="#80c343"/>
  <rect x="46" y="5" width="1" height="1" fill="#5b8e2c"/>
  <rect x="0" y="6" width="1" height="1" fill="#5b8e2c"/>
  <rect x="1" y="6" width="2" height="1" fill="#80c343"/>
  <rect x="3" y="6" width="1" height="1" fill="#ffffff"/>
  <rect x="4" y="6" width="5" height="1" fill="#80c343"/>
  <rect x="9" y="6" width="1" height="1" fill="#ffffff"/>
  <rect x="10" y="6" width="3" height="1" fill="#80c343"/>
  <rect x="13" y="6" width="1" height="1" fill="#ffffff"/>
  <rect x="14" y="6" width="1" height="1" fill="#80c343"/>
  <rect x="15" y="6" width="1" height="1" fill="#ffffff"/>
  <rect x="16" y="6" width="5" height="1" fill="#80c343"/>
  <rect x="21" y="6" width="1" height="1" fill="#ffffff"/>
  <rect x="22" y="6" width="5" height="1" fill="#80c343"/>
  <rect x="27" y="6" width="1" height="1" fill="#ffffff"/>
  <rect x="28" y="6" width="3" height="1" fill="#80c343"/>
  <rect x="31" y="6" width="1" height="1" fill="#ffffff"/>
  <rect x="32" y="6" width="1" height="1" fill="#80c343"/>
  <rect x="33" y="6" width="1" height="1" fill="#ffffff"/>
  <rect x="34" y="6" width="3" height="1" fill="#80c343"/>
  <rect x="37" y="6" width="1" height="1" fill="#ffffff"/>
  <rect x="38" y="6" width="2" height="1" fill="#80c343"/>
  <rect x="40" y="6" width="1" height="1" fill="#ffffff"/>
  <rect x="41" y="6" width="1" height="1" fill="#80c343"/>
  <rect x="42" y="6" width="1" height="1" fill="#ffffff"/>
  <rect x="43" y="6" width="3" height="1" fill="#80c343"/>
  <rect x="46" y="6" width="1" height="1" fill="#5b8e2c"/>
  <rect x="0" y="7" width="1" height="1" fill="#5b8e2c"/>
  <rect x="1" y="7" width="2" height="1" fill="#80c343"/>
  <rect x="3" y="7" width="4" height="1" fill="#ffffff"/>
  <rect x="7" y="7" width="2" height="1" fill="#80c343"/>
  <rect x="9" y="7" width="4" height="1" fill="#ffffff"/>
  <rect x="13" y="7" width="2" height="1" fill="#80c343"/>
  <rect x="15" y="7" width="4" height="1" fill="#ffffff"/>
  <rect x="19" y="7" width="2" height="1" fill="#80c343"/>
  <rect x="21" y="7" width="4" height="1" fill="#ffffff"/>
  <rect x="25" y="7" width="2" height="1" fill="#80c343"/>
  <rect x="27" y="7" width="4" height="1" fill="#ffffff"/>
  <rect x="31" y="7" width="2" height="1" fill="#80c343"/>
  <rect x="33" y="7" width="4" height="1" fill="#ffffff"/>
  <rect x="37" y="7" width="4" height="1" fill="#80c343"/>
  <rect x="41" y="7" width="1" height="1" fill="#ffffff"/>
  <rect x="42" y="7" width="4" height="1" fill="#80c343"/>
  <rect x="46" y="7" width="1" height="1" fill="#5b8e2c"/>
  <rect x="0" y="8" width="1" height="1" fill="#5b8e2c"/>
  <rect x="1" y="8" width="2" height="1" fill="#80c343"/>
  <rect x="3" y="8" width="1" height="1" fill="#ffffff"/>
  <rect x="4" y="8" width="5" height="1" fill="#80c343"/>
  <rect x="9" y="8" width="1" height="1" fill="#ffffff"/>
  <rect x="10" y="8" width="2" height="1" fill="#80c343"/>
  <rect x="12" y="8" width="1" height="1" fill="#ffffff"/>
  <rect x="13" y="8" width="2" height="1" fill="#80c343"/>
  <rect x="15" y="8" width="1" height="1" fill="#ffffff"/>
  <rect x="16" y="8" width="5" height="1" fill="#80c343"/>
  <rect x="21" y="8" width="1" height="1" fill="#ffffff"/>
  <rect x="22" y="8" width="5" height="1" fill="#80c343"/>
  <rect x="27" y="8" width="1" height="1" fill="#ffffff"/>
  <rect x="28" y="8" width="5" height="1" fill="#80c343"/>
  <rect x="33" y="8" width="1" height="1" fill="#ffffff"/>
  <rect x="34" y="8" width="3" height="1" fill="#80c343"/>
  <rect x="37" y="8" width="1" height="1" fill="#ffffff"/>
  <rect x="38" y="8" width="2" height="1" fill="#80c343"/>
  <rect x="40" y="8" width="1" height="1" fill="#ffffff"/>
  <rect x="41" y="8" width="1" height="1" fill="#80c343"/>
  <rect x="42" y="8" width="1" height="1" fill="#ffffff"/>
  <rect x="43" y="8" width="3" height="1" fill="#80c343"/>
  <rect x="46" y="8" width="1" height="1" fill="#5b8e2c"/>
  <rect x="0" y="9" width="1" height="1" fill="#5b8e2c"/>
  <rect x="1" y="9" width="2" height="1" fill="#80c343"/>
  <rect x="3" y="9" width="1" height="1" fill="#ffffff"/>
  <rect x="4" y="9" width="5" height="1" fill="#80c343"/>
  <rect x="9" y="9" width="1" height="1" fill="#ffffff"/>
  <rect x="10" y="9" width="3" height="1" fill="#80c343"/>
  <rect x="13" y="9" width="1" height="1" fill="#ffffff"/>
  <rect x="14" y="9" width="1" height="1" fill="#80c343"/>
  <rect x="15" y="9" width="1" height="1" fill="#ffffff"/>
  <rect x="16" y="9" width="5" height="1" fill="#80c343"/>
  <rect x="21" y="9" width="1" height="1" fill="#ffffff"/>
  <rect x="22" y="9" width="5" height="1" fill="#80c343"/>
  <rect x="27" y="9" width="1" height="1" fill="#ffffff"/>
  <rect x="28" y="9" width="5" height="1" fill="#80c343"/>
  <rect x="33" y="9" width="1" height="1" fill="#ffffff"/>
  <rect x="34" y="9" width="3" height="1" fill="#80c343"/>
  <rect x="37" y="9" width="1" height="1" fill="#ffffff"/>
  <rect x="38" y="9" width="1" height="1" fill="#80c343"/>
  <rect x="39" y="9" width="1" height="1" fill="#ffffff"/>
  <rect x="40" y="9" width="3" height="1" fill="#80c343"/>
  <rect x="43" y="9" width="1" height="1" fill="#ffffff"/>
  <rect x="44" y="9" width="2" height="1" fill="#80c343"/>
  <rect x="46" y="9" width="1" height="1" fill="#5b8e2c"/>
  <rect x="0" y="10" width="1" height="1" fill="#5b8e2c"/>
  <rect x="1" y="10" width="2" height="1" fill="#80c343"/>
  <rect x="3" y="10" width="1" height="1" fill="#ffffff"/>
  <rect x="4" y="10" width="5" height="1" fill="#80c343"/>
  <rect x="9" y="10" width="1" height="1" fill="#ffffff"/>
  <rect x="10" y="10" width="3" height="1" fill="#80c343"/>
  <rect x="13" y="10" width="1" height="1" fill="#ffffff"/>
  <rect x="14" y="10" width="1" height="1" fill="#80c343"/>
  <rect x="15" y="10" width="5" height="1" fill="#ffffff"/>
  <rect x="20" y="10" width="1" height="1" fill="#80c343"/>
  <rect x="21" y="10" width="5" height="1" fill="#ffffff"/>
  <rect x="26" y="10" width="1" height="1" fill="#80c343"/>
  <rect x="27" y="10" width="1" height="1" fill="#ffffff"/>
  <rect x="28" y="10" width="5" height="1" fill="#80c343"/>
  <rect x="33" y="10" width="4" height="1" fill="#ffffff"/>
  <rect x="37" y="10" width="2" height="1" fill="#80c343"/>
  <rect x="39" y="10" width="1" height="1" fill="#ffffff"/>
  <rect x="40" y="10" width="3" height="1" fill="#80c343"/>
  <rect x="43" y="10" width="1" height="1" fill="#ffffff"/>
  <rect x="44" y="10" width="2" height="1" fill="#80c343"/>
  <rect x="46" y="10" width="1" height="1" fill="#5b8e2c"/>
  <rect x="0" y="11" width="1" height="1" fill="#5b8e2c"/>
  <rect x="1" y="11" width="45" height="1" fill="#80c343"/>
  <rect x="46" y="11" width="1" height="1" fill="#5b8e2c"/>
  <rect x="0" y="12" width="47" height="1" fill="#80c343"/>
  <rect x="0" y="13" width="47" height="1" fill="#80c343"/>
  <rect x="0" y="14" width="47" height="1" fill="#5b8e2c"/>
</svg>
