<svg xmlns="http://www.w3.org/2000/svg" viewBox="0 0 24 24" shape-rendering="crispEdges">
  <rect x="8" y="1" width="8" height="1" fill="#80c343"/>
  <rect x="7" y="2" width="1" height="1" fill="#80c343"/>
  <rect x="8" y="2" width="8" height="1" fill="#a4d268"/>
  <rect x="16" y="2" width="1" height="1" fill="#80c343"/>
  <rect x="6" y="3" width="1" height="1" fill="#80c343"/>
  <rect x="7" y="3" width="1" height="1" fill="#a4d268"/>
  <rect x="8" y="3" width="8" height="1" fill="#80c343"/>
  <rect x="16" y="3" width="1" height="1" fill="#a4d268"/>
  <rect x="17" y="3" width="1" height="1" fill="#80c343"/>
  <rect x="5" y="4" width="1" height="1" fill="#80c343"/>
  <rect x="6" y="4" width="1" height="1" fill="#a4d268"/>
  <rect x="7" y="4" width="10" height="1" fill="#80c343"/>
  <rect x="17" y="4" width="1" height="1" fill="#a4d268"/>
  <rect x="18" y="4" width="1" height="1" fill="#80c343"/>
  <rect x="5" y="5" width="3" height="1" fill="#80c343"/>
  <rect x="8" y="5" width="2" height="1" fill="#ffffff"/>
  <rect x="10" y="5" width="4" height="1" fill="#80c343"/>
  <rect x="14" y="5" width="2" height="1" fill="#ffffff"/>
  <rect x="16" y="5" width="3" height="1" fill="#80c343"/>
  <rect x="5" y="6" width="2" height="1" fill="#80c343"/>
  <rect x="7" y="6" width="1" height="1" fill="#ffffff"/>
  <rect x="8" y="6" width="1" height="1" fill="#1a2342"/>
  <rect x="9" y="6" width="1" height="1" fill="#ffffff"/>
  <rect x="10" y="6" width="4" height="1" fill="#80c343"/>
  <rect x="14" y="6" width="1" height="1" fill="#ffffff"/>
  <rect x="15" y="6" width="1" height="1" fill="#1a2342"/>
  <rect x="16" y="6" width="1" height="1" fill="#ffffff"/>
  <rect x="17" y="6" width="2" height="1" fill="#80c343"/>
  <rect x="5" y="7" width="3" height="1" fill="#80c343"/>
  <rect x="8" y="7" width="2" height="1" fill="#ffffff"/>
  <rect x="10" y="7" width="4" height="1" fill="#80c343"/>
  <rect x="14" y="7" width="2" height="1" fill="#ffffff"/>
  <rect x="16" y="7" width="3" height="1" fill="#80c343"/>
  <rect x="5" y="8" width="14" height="1" fill="#80c343"/>
  <rect x="5" y="9" width="1" height="1" fill="#80c343"/>
  <rect x="6" y="9" width="1" height="1" fill="#5b8e2c"/>
  <rect x="7" y="9" width="3" height="1" fill="#80c343"/>
  <rect x="10" y="9" width="6" height="1" fill="#e02020"/>
  <rect x="16" y="9" width="3" height="1" fill="#80c343"/>
  <rect x="19" y="9" width="1" height="1" fill="#5b8e2c"/>
  <rect x="6" y="10" width="1" height="1" fill="#80c343"/>
  <rect x="7" y="10" width="1" height="1" fill="#5b8e2c"/>
  <rect x="8" y="10" width="1" height="1" fill="#80c343"/>
  <rect x="9" y="10" width="8" height="1" fill="#e02020"/>
  <rect x="17" y="10" width="1" height="1" fill="#80c343"/>
  <rect x="18" y="10" width="1" height="1" fill="#5b8e2c"/>
  <rect x="7" y="11" width="1" height="1" fill="#80c343"/>
  <rect x="8" y="11" width="2" height="1" fill="#5b8e2c"/>
  <rect x="10" y="11" width="6" height="1" fill="#e02020"/>
  <rect x="16" y="11" width="2" height="1" fill="#5b8e2c"/>
  <rect x="8" y="12" width="3" height="1" fill="#80c343"/>
  <rect x="11" y="12" width="5" height="1" fill="#5b8e2c"/>
  <rect x="16" y="12" width="1" height="1" fill="#80c343"/>
  <rect x="8" y="13" width="8" height="1" fill="#80c343"/>
  <rect x="7" y="14" width="3" height="1" fill="#80c343"/>
  <rect x="14" y="14" width="3" height="1" fill="#80c343"/>
  <rect x="6" y="15" width="1" height="1" fill="#80c343"/>
  <rect x="7" y="15" width="1" height="1" fill="#5b8e2c"/>
  <rect x="8" y="15" width="1" height="1" fill="#80c343"/>
  <rect x="9" y="15" width="1" height="1" fill="#5b8e2c"/>
  <rect x="10" y="15" width="4" height="1" fill="#80c343"/>
  <rect x="14" y="15" width="1" height="1" fill="#5b8e2c"/>
  <rect x="15" y="15" width="2" height="1" fill="#80c343"/>
  <rect x="17" y="15" width="1" height="1" fill="#5b8e2c"/>
  <rect x="5" y="16" width="1" height="1" fill="#80c343"/>
  <rect x="6" y="16" width="1" height="1" fill="#5b8e2c"/>
  <rect x="7" y="16" width="3" height="1" fill="#80c343"/>
  <rect x="10" y="16" width="1" height="1" fill="#f4d03f"/>
  <rect x="11" y="16" width="4" height="1" fill="#80c343"/>
  <rect x="15" y="16" width="1" height="1" fill="#f4d03f"/>
  <rect x="16" y="16" width="2" height="1" fill="#80c343"/>
  <rect x="18" y="16" width="1" height="1" fill="#5b8e2c"/>
  <rect x="5" y="17" width="1" height="1" fill="#80c343"/>
  <rect x="6" y="17" width="1" height="1" fill="#5b8e2c"/>
  <rect x="7" y="17" width="3" height="1" fill="#80c343"/>
  <rect x="10" y="17" width="1" height="1" fill="#f4d03f"/>
  <rect x="11" y="17" width="4" height="1" fill="#80c343"/>
  <rect x="15" y="17" width="1" height="1" fill="#f4d03f"/>
  <rect x="16" y="17" width="2" height="1" fill="#80c343"/>
  <rect x="18" y="17" width="1" height="1" fill="#5b8e2c"/>
  <rect x="5" y="18" width="1" height="1" fill="#80c343"/>
  <rect x="6" y="18" width="1" height="1" fill="#5b8e2c"/>
  <rect x="7" y="18" width="3" height="1" fill="#80c343"/>
  <rect x="10" y="18" width="1" height="1" fill="#5b8e2c"/>
  <rect x="11" y="18" width="4" height="1" fill="#80c343"/>
  <rect x="15" y="18" width="1" height="1" fill="#5b8e2c"/>
  <rect x="16" y="18" width="2" height="1" fill="#80c343"/>
  <rect x="18" y="18" width="1" height="1" fill="#5b8e2c"/>
  <rect x="5" y="19" width="1" height="1" fill="#80c343"/>
  <rect x="6" y="19" width="2" height="1" fill="#5b8e2c"/>
  <rect x="8" y="19" width="10" height="1" fill="#80c343"/>
  <rect x="18" y="19" width="1" height="1" fill="#5b8e2c"/>
  <rect x="6" y="20" width="1" height="1" fill="#80c343"/>
  <rect x="7" y="20" width="1" height="1" fill="#5b8e2c"/>
  <rect x="8" y="20" width="9" height="1" fill="#80c343"/>
  <rect x="17" y="20" width="1" height="1" fill="#5b8e2c"/>
  <rect x="7" y="21" width="10" height="1" fill="#80c343"/>
  <rect x="6" y="22" width="3" height="1" fill="#80c343"/>
  <rect x="15" y="22" width="3" height="1" fill="#80c343"/>
  <rect x="5" y="23" width="3" height="1" fill="#80c343"/>
  <rect x="16" y="23" width="3" height="1" fill="#80c343"/>
</svg>
